<?xml version="1.0" encoding="UTF-8" standalone="no"?>
<!DOCTYPE svg PUBLIC "-//W3C//DTD SVG 1.1//EN"
 "http://www.w3.org/Graphics/SVG/1.1/DTD/svg11.dtd">
<!-- Generated by graphviz version 2.40.1 (20161225.0304)
 -->
<!-- Title: %3 Pages: 1 -->
<svg width="1671pt" height="764pt"
 viewBox="0.00 0.00 1671.00 764.00" xmlns="http://www.w3.org/2000/svg" xmlns:xlink="http://www.w3.org/1999/xlink">
<g id="graph0" class="graph" transform="scale(1 1) rotate(0) translate(4 760)">
<title>%3</title>
<polygon fill="#ffffff" stroke="transparent" points="-4,4 -4,-760 1667,-760 1667,4 -4,4"/>
<!-- [root] data.oci_identity_availability_domains.this -->
<g id="node1" class="node">
<title>[root] data.oci_identity_availability_domains.this</title>
<polygon fill="none" stroke="#000000" points="1127.5,-252 929.5,-252 929.5,-216 1127.5,-216 1127.5,-252"/>
<text text-anchor="middle" x="1028.5" y="-230.3" font-family="Times,serif" font-size="14.00" fill="#000000">data.oci_identity_availability_domains.this</text>
</g>
<!-- [root] provider.oci -->
<g id="node24" class="node">
<title>[root] provider.oci</title>
<polygon fill="none" stroke="#000000" points="1224.5,-108 1161.9946,-90 1224.5,-72 1287.0054,-90 1224.5,-108"/>
<text text-anchor="middle" x="1224.5" y="-86.3" font-family="Times,serif" font-size="14.00" fill="#000000">provider.oci</text>
</g>
<!-- [root] data.oci_identity_availability_domains.this&#45;&gt;[root] provider.oci -->
<g id="edge1" class="edge">
<title>[root] data.oci_identity_availability_domains.this&#45;&gt;[root] provider.oci</title>
<path fill="none" stroke="#000000" d="M1053.3235,-215.7623C1090.5156,-188.4375 1160.3767,-137.111 1198.3364,-109.2223"/>
<polygon fill="#000000" stroke="#000000" points="1200.831,-111.7326 1206.8175,-102.9912 1196.6864,-106.0914 1200.831,-111.7326"/>
</g>
<!-- [root] var.compartment_id -->
<g id="node25" class="node">
<title>[root] var.compartment_id</title>
<polygon fill="none" stroke="#000000" points="1138,-108 1043,-108 1043,-72 1144,-72 1144,-102 1138,-108"/>
<polyline fill="none" stroke="#000000" points="1138,-108 1138,-102 "/>
<polyline fill="none" stroke="#000000" points="1144,-102 1138,-102 "/>
<text text-anchor="middle" x="1093.5" y="-86.3" font-family="Times,serif" font-size="14.00" fill="#000000">var.compartment_id</text>
</g>
<!-- [root] data.oci_identity_availability_domains.this&#45;&gt;[root] var.compartment_id -->
<g id="edge2" class="edge">
<title>[root] data.oci_identity_availability_domains.this&#45;&gt;[root] var.compartment_id</title>
<path fill="none" stroke="#000000" d="M1036.7323,-215.7623C1047.9655,-190.8764 1068.1851,-146.0822 1081.2148,-117.2165"/>
<polygon fill="#000000" stroke="#000000" points="1084.4104,-118.6441 1085.3345,-108.0896 1078.0302,-115.7641 1084.4104,-118.6441"/>
</g>
<!-- [root] oci_core_dhcp_options.techflow_dhcp_options -->
<g id="node2" class="node">
<title>[root] oci_core_dhcp_options.techflow_dhcp_options</title>
<polygon fill="none" stroke="#000000" points="1257,-324 1042,-324 1042,-288 1257,-288 1257,-324"/>
<text text-anchor="middle" x="1149.5" y="-302.3" font-family="Times,serif" font-size="14.00" fill="#000000">oci_core_dhcp_options.techflow_dhcp_options</text>
</g>
<!-- [root] oci_core_vcn.techflow_vcn -->
<g id="node10" class="node">
<title>[root] oci_core_vcn.techflow_vcn</title>
<polygon fill="none" stroke="#000000" points="1340.5,-180 1208.5,-180 1208.5,-144 1340.5,-144 1340.5,-180"/>
<text text-anchor="middle" x="1274.5" y="-158.3" font-family="Times,serif" font-size="14.00" fill="#000000">oci_core_vcn.techflow_vcn</text>
</g>
<!-- [root] oci_core_dhcp_options.techflow_dhcp_options&#45;&gt;[root] oci_core_vcn.techflow_vcn -->
<g id="edge14" class="edge">
<title>[root] oci_core_dhcp_options.techflow_dhcp_options&#45;&gt;[root] oci_core_vcn.techflow_vcn</title>
<path fill="none" stroke="#000000" d="M1165.3313,-287.7623C1187.3093,-262.4436 1227.1752,-216.5182 1252.1692,-187.7251"/>
<polygon fill="#000000" stroke="#000000" points="1254.885,-189.9357 1258.7972,-180.0896 1249.5988,-185.347 1254.885,-189.9357"/>
</g>
<!-- [root] oci_core_instance.techflow_instances -->
<g id="node3" class="node">
<title>[root] oci_core_instance.techflow_instances</title>
<polygon fill="none" stroke="#000000" points="1199,-468 1024,-468 1024,-432 1199,-432 1199,-468"/>
<text text-anchor="middle" x="1111.5" y="-446.3" font-family="Times,serif" font-size="14.00" fill="#000000">oci_core_instance.techflow_instances</text>
</g>
<!-- [root] oci_core_instance.techflow_instances&#45;&gt;[root] data.oci_identity_availability_domains.this -->
<g id="edge15" class="edge">
<title>[root] oci_core_instance.techflow_instances&#45;&gt;[root] data.oci_identity_availability_domains.this</title>
<path fill="none" stroke="#000000" d="M1095.8343,-431.8987C1076.8361,-408.7009 1045.7179,-366.3961 1032.5,-324 1026.264,-303.9981 1025.459,-280.286 1026.1087,-262.2233"/>
<polygon fill="#000000" stroke="#000000" points="1029.6135,-262.2227 1026.6473,-252.0516 1022.6233,-261.8525 1029.6135,-262.2227"/>
</g>
<!-- [root] oci_core_network_security_group.techflow_nsg -->
<g id="node5" class="node">
<title>[root] oci_core_network_security_group.techflow_nsg</title>
<polygon fill="none" stroke="#000000" points="985,-396 766,-396 766,-360 985,-360 985,-396"/>
<text text-anchor="middle" x="875.5" y="-374.3" font-family="Times,serif" font-size="14.00" fill="#000000">oci_core_network_security_group.techflow_nsg</text>
</g>
<!-- [root] oci_core_instance.techflow_instances&#45;&gt;[root] oci_core_network_security_group.techflow_nsg -->
<g id="edge16" class="edge">
<title>[root] oci_core_instance.techflow_instances&#45;&gt;[root] oci_core_network_security_group.techflow_nsg</title>
<path fill="none" stroke="#000000" d="M1052.2519,-431.9243C1019.5685,-421.9531 978.8117,-409.5188 944.6742,-399.104"/>
<polygon fill="#000000" stroke="#000000" points="945.3586,-395.6536 934.7725,-396.0831 943.316,-402.3489 945.3586,-395.6536"/>
</g>
<!-- [root] oci_core_subnet.techflow_subnet -->
<g id="node9" class="node">
<title>[root] oci_core_subnet.techflow_subnet</title>
<polygon fill="none" stroke="#000000" points="1277,-396 1120,-396 1120,-360 1277,-360 1277,-396"/>
<text text-anchor="middle" x="1198.5" y="-374.3" font-family="Times,serif" font-size="14.00" fill="#000000">oci_core_subnet.techflow_subnet</text>
</g>
<!-- [root] oci_core_instance.techflow_instances&#45;&gt;[root] oci_core_subnet.techflow_subnet -->
<g id="edge17" class="edge">
<title>[root] oci_core_instance.techflow_instances&#45;&gt;[root] oci_core_subnet.techflow_subnet</title>
<path fill="none" stroke="#000000" d="M1133.4538,-431.8314C1144.1695,-422.9632 1157.2189,-412.1637 1168.809,-402.5718"/>
<polygon fill="#000000" stroke="#000000" points="1171.0808,-405.2349 1176.5533,-396.1628 1166.6178,-399.8422 1171.0808,-405.2349"/>
</g>
<!-- [root] oci_core_internet_gateway.techflow_ig -->
<g id="node4" class="node">
<title>[root] oci_core_internet_gateway.techflow_ig</title>
<polygon fill="none" stroke="#000000" points="1502.5,-252 1320.5,-252 1320.5,-216 1502.5,-216 1502.5,-252"/>
<text text-anchor="middle" x="1411.5" y="-230.3" font-family="Times,serif" font-size="14.00" fill="#000000">oci_core_internet_gateway.techflow_ig</text>
</g>
<!-- [root] oci_core_internet_gateway.techflow_ig&#45;&gt;[root] oci_core_vcn.techflow_vcn -->
<g id="edge18" class="edge">
<title>[root] oci_core_internet_gateway.techflow_ig&#45;&gt;[root] oci_core_vcn.techflow_vcn</title>
<path fill="none" stroke="#000000" d="M1376.9291,-215.8314C1359.0815,-206.4516 1337.1226,-194.9112 1318.12,-184.9244"/>
<polygon fill="#000000" stroke="#000000" points="1319.5401,-181.7168 1309.0598,-180.1628 1316.2836,-187.9132 1319.5401,-181.7168"/>
</g>
<!-- [root] oci_core_network_security_group.techflow_nsg&#45;&gt;[root] oci_core_vcn.techflow_vcn -->
<g id="edge19" class="edge">
<title>[root] oci_core_network_security_group.techflow_nsg&#45;&gt;[root] oci_core_vcn.techflow_vcn</title>
<path fill="none" stroke="#000000" d="M985.0414,-369.9097C1093.6787,-360.7777 1246.6288,-344.4876 1265.5,-324 1298.7624,-287.8886 1290.904,-225.8555 1282.4995,-189.9368"/>
<polygon fill="#000000" stroke="#000000" points="1285.8631,-188.9604 1280.0338,-180.1134 1279.0737,-190.6647 1285.8631,-188.9604"/>
</g>
<!-- [root] oci_core_network_security_group_security_rule.techflow_22_ingress_nsg_sec_rule -->
<g id="node6" class="node">
<title>[root] oci_core_network_security_group_security_rule.techflow_22_ingress_nsg_sec_rule</title>
<polygon fill="none" stroke="#000000" points="807.5,-540 437.5,-540 437.5,-504 807.5,-504 807.5,-540"/>
<text text-anchor="middle" x="622.5" y="-518.3" font-family="Times,serif" font-size="14.00" fill="#000000">oci_core_network_security_group_security_rule.techflow_22_ingress_nsg_sec_rule</text>
</g>
<!-- [root] oci_core_network_security_group_security_rule.techflow_22_ingress_nsg_sec_rule&#45;&gt;[root] oci_core_network_security_group.techflow_nsg -->
<g id="edge20" class="edge">
<title>[root] oci_core_network_security_group_security_rule.techflow_22_ingress_nsg_sec_rule&#45;&gt;[root] oci_core_network_security_group.techflow_nsg</title>
<path fill="none" stroke="#000000" d="M654.2864,-503.9081C700.0144,-477.8812 784.3779,-429.8639 834.6679,-401.2404"/>
<polygon fill="#000000" stroke="#000000" points="836.685,-404.1196 843.6446,-396.1311 833.2224,-398.036 836.685,-404.1196"/>
</g>
<!-- [root] oci_core_network_security_group_security_rule.techflow_all_egress_nsg_sec_rule -->
<g id="node7" class="node">
<title>[root] oci_core_network_security_group_security_rule.techflow_all_egress_nsg_sec_rule</title>
<polygon fill="none" stroke="#000000" points="1193,-540 826,-540 826,-504 1193,-504 1193,-540"/>
<text text-anchor="middle" x="1009.5" y="-518.3" font-family="Times,serif" font-size="14.00" fill="#000000">oci_core_network_security_group_security_rule.techflow_all_egress_nsg_sec_rule</text>
</g>
<!-- [root] oci_core_network_security_group_security_rule.techflow_all_egress_nsg_sec_rule&#45;&gt;[root] oci_core_network_security_group.techflow_nsg -->
<g id="edge21" class="edge">
<title>[root] oci_core_network_security_group_security_rule.techflow_all_egress_nsg_sec_rule&#45;&gt;[root] oci_core_network_security_group.techflow_nsg</title>
<path fill="none" stroke="#000000" d="M944.7949,-503.8893C926.0975,-495.7264 907.3054,-484.1658 894.5,-468 880.6953,-450.5727 876.2861,-425.4832 875.1361,-406.2193"/>
<polygon fill="#000000" stroke="#000000" points="878.6334,-406.0766 874.7935,-396.2021 871.6374,-406.3159 878.6334,-406.0766"/>
</g>
<!-- [root] oci_core_route_table.techflow_route_table -->
<g id="node8" class="node">
<title>[root] oci_core_route_table.techflow_route_table</title>
<polygon fill="none" stroke="#000000" points="1509.5,-324 1313.5,-324 1313.5,-288 1509.5,-288 1509.5,-324"/>
<text text-anchor="middle" x="1411.5" y="-302.3" font-family="Times,serif" font-size="14.00" fill="#000000">oci_core_route_table.techflow_route_table</text>
</g>
<!-- [root] oci_core_route_table.techflow_route_table&#45;&gt;[root] oci_core_internet_gateway.techflow_ig -->
<g id="edge22" class="edge">
<title>[root] oci_core_route_table.techflow_route_table&#45;&gt;[root] oci_core_internet_gateway.techflow_ig</title>
<path fill="none" stroke="#000000" d="M1411.5,-287.8314C1411.5,-280.131 1411.5,-270.9743 1411.5,-262.4166"/>
<polygon fill="#000000" stroke="#000000" points="1415.0001,-262.4132 1411.5,-252.4133 1408.0001,-262.4133 1415.0001,-262.4132"/>
</g>
<!-- [root] oci_core_subnet.techflow_subnet&#45;&gt;[root] oci_core_dhcp_options.techflow_dhcp_options -->
<g id="edge23" class="edge">
<title>[root] oci_core_subnet.techflow_subnet&#45;&gt;[root] oci_core_dhcp_options.techflow_dhcp_options</title>
<path fill="none" stroke="#000000" d="M1186.1352,-359.8314C1180.5491,-351.6232 1173.837,-341.7606 1167.6928,-332.7323"/>
<polygon fill="#000000" stroke="#000000" points="1170.551,-330.7112 1162.0313,-324.4133 1164.764,-334.6496 1170.551,-330.7112"/>
</g>
<!-- [root] oci_core_subnet.techflow_subnet&#45;&gt;[root] oci_core_route_table.techflow_route_table -->
<g id="edge24" class="edge">
<title>[root] oci_core_subnet.techflow_subnet&#45;&gt;[root] oci_core_route_table.techflow_route_table</title>
<path fill="none" stroke="#000000" d="M1251.974,-359.9243C1281.2189,-350.0387 1317.6259,-337.7321 1348.2726,-327.3726"/>
<polygon fill="#000000" stroke="#000000" points="1349.6514,-330.6012 1358.004,-324.0831 1347.4098,-323.9698 1349.6514,-330.6012"/>
</g>
<!-- [root] oci_core_vcn.techflow_vcn&#45;&gt;[root] provider.oci -->
<g id="edge25" class="edge">
<title>[root] oci_core_vcn.techflow_vcn&#45;&gt;[root] provider.oci</title>
<path fill="none" stroke="#000000" d="M1261.8829,-143.8314C1255.4388,-134.5518 1247.5261,-123.1576 1240.6424,-113.2451"/>
<polygon fill="#000000" stroke="#000000" points="1243.4996,-111.2232 1234.9208,-105.0059 1237.75,-115.216 1243.4996,-111.2232"/>
</g>
<!-- [root] oci_core_vcn.techflow_vcn&#45;&gt;[root] var.compartment_id -->
<g id="edge26" class="edge">
<title>[root] oci_core_vcn.techflow_vcn&#45;&gt;[root] var.compartment_id</title>
<path fill="none" stroke="#000000" d="M1228.8261,-143.8314C1204.4032,-134.1162 1174.1534,-122.0831 1148.4516,-111.8592"/>
<polygon fill="#000000" stroke="#000000" points="1149.431,-108.4821 1138.8455,-108.038 1146.8437,-114.9864 1149.431,-108.4821"/>
</g>
<!-- [root] oci_core_volume.techflow_volumes -->
<g id="node11" class="node">
<title>[root] oci_core_volume.techflow_volumes</title>
<polygon fill="none" stroke="#000000" points="169,-468 0,-468 0,-432 169,-432 169,-468"/>
<text text-anchor="middle" x="84.5" y="-446.3" font-family="Times,serif" font-size="14.00" fill="#000000">oci_core_volume.techflow_volumes</text>
</g>
<!-- [root] oci_core_volume.techflow_volumes&#45;&gt;[root] data.oci_identity_availability_domains.this -->
<g id="edge27" class="edge">
<title>[root] oci_core_volume.techflow_volumes&#45;&gt;[root] data.oci_identity_availability_domains.this</title>
<path fill="none" stroke="#000000" d="M161.9745,-431.9764C240.4668,-413.7393 365.3932,-384.7774 473.5,-360 637.4053,-322.4339 828.6665,-279.1295 938.4737,-254.3187"/>
<polygon fill="#000000" stroke="#000000" points="939.5334,-257.6676 948.5163,-252.0498 937.9908,-250.8396 939.5334,-257.6676"/>
</g>
<!-- [root] oci_core_volume_attachment.techflow_volumes_attachments -->
<g id="node12" class="node">
<title>[root] oci_core_volume_attachment.techflow_volumes_attachments</title>
<polygon fill="none" stroke="#000000" points="381.5,-540 105.5,-540 105.5,-504 381.5,-504 381.5,-540"/>
<text text-anchor="middle" x="243.5" y="-518.3" font-family="Times,serif" font-size="14.00" fill="#000000">oci_core_volume_attachment.techflow_volumes_attachments</text>
</g>
<!-- [root] oci_core_volume_attachment.techflow_volumes_attachments&#45;&gt;[root] oci_core_instance.techflow_instances -->
<g id="edge28" class="edge">
<title>[root] oci_core_volume_attachment.techflow_volumes_attachments&#45;&gt;[root] oci_core_instance.techflow_instances</title>
<path fill="none" stroke="#000000" d="M381.5997,-508.0188C397.4092,-506.5799 413.3003,-505.2059 428.5,-504 685.3158,-483.6242 753.7876,-499.4505 1013.684,-468.006"/>
<polygon fill="#000000" stroke="#000000" points="1014.3038,-471.4564 1023.8055,-466.7694 1013.4548,-464.5081 1014.3038,-471.4564"/>
</g>
<!-- [root] oci_core_volume_attachment.techflow_volumes_attachments&#45;&gt;[root] oci_core_volume.techflow_volumes -->
<g id="edge29" class="edge">
<title>[root] oci_core_volume_attachment.techflow_volumes_attachments&#45;&gt;[root] oci_core_volume.techflow_volumes</title>
<path fill="none" stroke="#000000" d="M203.3776,-503.8314C182.2068,-494.2446 156.0517,-482.4008 133.6697,-472.2655"/>
<polygon fill="#000000" stroke="#000000" points="134.8872,-468.9748 124.3339,-468.038 131.9997,-475.3515 134.8872,-468.9748"/>
</g>
<!-- [root] provisioner.remote&#45;exec -->
<g id="node32" class="node">
<title>[root] provisioner.remote&#45;exec</title>
<ellipse fill="none" stroke="#000000" cx="281.5" cy="-450" rx="94.4839" ry="18"/>
<text text-anchor="middle" x="281.5" y="-446.3" font-family="Times,serif" font-size="14.00" fill="#000000">[root] provisioner.remote&#45;exec</text>
</g>
<!-- [root] oci_core_volume_attachment.techflow_volumes_attachments&#45;&gt;[root] provisioner.remote&#45;exec -->
<g id="edge30" class="edge">
<title>[root] oci_core_volume_attachment.techflow_volumes_attachments&#45;&gt;[root] provisioner.remote&#45;exec</title>
<path fill="none" stroke="#000000" d="M253.089,-503.8314C257.397,-495.6688 262.5686,-485.87 267.3119,-476.8827"/>
<polygon fill="#000000" stroke="#000000" points="270.4734,-478.3909 272.0457,-467.9134 264.2827,-475.1236 270.4734,-478.3909"/>
</g>
<!-- [root] output.techflow_dhcp_options -->
<g id="node13" class="node">
<title>[root] output.techflow_dhcp_options</title>
<polygon fill="none" stroke="#000000" points="620.5,-396 482.5,-396 482.5,-360 626.5,-360 626.5,-390 620.5,-396"/>
<polyline fill="none" stroke="#000000" points="620.5,-396 620.5,-390 "/>
<polyline fill="none" stroke="#000000" points="626.5,-390 620.5,-390 "/>
<text text-anchor="middle" x="554.5" y="-374.3" font-family="Times,serif" font-size="14.00" fill="#000000">output.techflow_dhcp_options</text>
</g>
<!-- [root] output.techflow_dhcp_options&#45;&gt;[root] oci_core_dhcp_options.techflow_dhcp_options -->
<g id="edge31" class="edge">
<title>[root] output.techflow_dhcp_options&#45;&gt;[root] oci_core_dhcp_options.techflow_dhcp_options</title>
<path fill="none" stroke="#000000" d="M626.5671,-369.2793C727.2301,-357.0982 911.1219,-334.8458 1031.8178,-320.2405"/>
<polygon fill="#000000" stroke="#000000" points="1032.3368,-323.7034 1041.8439,-319.0273 1031.4958,-316.754 1032.3368,-323.7034"/>
</g>
<!-- [root] output.techflow_ig -->
<g id="node14" class="node">
<title>[root] output.techflow_ig</title>
<polygon fill="none" stroke="#000000" points="1617.5,-324 1527.5,-324 1527.5,-288 1623.5,-288 1623.5,-318 1617.5,-324"/>
<polyline fill="none" stroke="#000000" points="1617.5,-324 1617.5,-318 "/>
<polyline fill="none" stroke="#000000" points="1623.5,-318 1617.5,-318 "/>
<text text-anchor="middle" x="1575.5" y="-302.3" font-family="Times,serif" font-size="14.00" fill="#000000">output.techflow_ig</text>
</g>
<!-- [root] output.techflow_ig&#45;&gt;[root] oci_core_internet_gateway.techflow_ig -->
<g id="edge32" class="edge">
<title>[root] output.techflow_ig&#45;&gt;[root] oci_core_internet_gateway.techflow_ig</title>
<path fill="none" stroke="#000000" d="M1534.1159,-287.8314C1512.1818,-278.2018 1485.0608,-266.295 1461.9069,-256.1299"/>
<polygon fill="#000000" stroke="#000000" points="1463.15,-252.8532 1452.5865,-252.038 1460.336,-259.2627 1463.15,-252.8532"/>
</g>
<!-- [root] output.techflow_instances -->
<g id="node15" class="node">
<title>[root] output.techflow_instances</title>
<polygon fill="none" stroke="#000000" points="1331.5,-540 1211.5,-540 1211.5,-504 1337.5,-504 1337.5,-534 1331.5,-540"/>
<polyline fill="none" stroke="#000000" points="1331.5,-540 1331.5,-534 "/>
<polyline fill="none" stroke="#000000" points="1337.5,-534 1331.5,-534 "/>
<text text-anchor="middle" x="1274.5" y="-518.3" font-family="Times,serif" font-size="14.00" fill="#000000">output.techflow_instances</text>
</g>
<!-- [root] output.techflow_instances&#45;&gt;[root] oci_core_instance.techflow_instances -->
<g id="edge33" class="edge">
<title>[root] output.techflow_instances&#45;&gt;[root] oci_core_instance.techflow_instances</title>
<path fill="none" stroke="#000000" d="M1233.3682,-503.8314C1211.5679,-494.2018 1184.6122,-482.295 1161.5996,-472.1299"/>
<polygon fill="#000000" stroke="#000000" points="1162.8976,-468.877 1152.336,-468.038 1160.0692,-475.2802 1162.8976,-468.877"/>
</g>
<!-- [root] output.techflow_nsg -->
<g id="node16" class="node">
<title>[root] output.techflow_nsg</title>
<polygon fill="none" stroke="#000000" points="999.5,-468 903.5,-468 903.5,-432 1005.5,-432 1005.5,-462 999.5,-468"/>
<polyline fill="none" stroke="#000000" points="999.5,-468 999.5,-462 "/>
<polyline fill="none" stroke="#000000" points="1005.5,-462 999.5,-462 "/>
<text text-anchor="middle" x="954.5" y="-446.3" font-family="Times,serif" font-size="14.00" fill="#000000">output.techflow_nsg</text>
</g>
<!-- [root] output.techflow_nsg&#45;&gt;[root] oci_core_network_security_group.techflow_nsg -->
<g id="edge34" class="edge">
<title>[root] output.techflow_nsg&#45;&gt;[root] oci_core_network_security_group.techflow_nsg</title>
<path fill="none" stroke="#000000" d="M934.565,-431.8314C925.0217,-423.1337 913.4401,-412.5783 903.0694,-403.1265"/>
<polygon fill="#000000" stroke="#000000" points="905.1772,-400.3121 895.4287,-396.1628 900.462,-405.4857 905.1772,-400.3121"/>
</g>
<!-- [root] output.techflow_nsg_egress_all_rule -->
<g id="node17" class="node">
<title>[root] output.techflow_nsg_egress_all_rule</title>
<polygon fill="none" stroke="#000000" points="1127,-612 962,-612 962,-576 1133,-576 1133,-606 1127,-612"/>
<polyline fill="none" stroke="#000000" points="1127,-612 1127,-606 "/>
<polyline fill="none" stroke="#000000" points="1133,-606 1127,-606 "/>
<text text-anchor="middle" x="1047.5" y="-590.3" font-family="Times,serif" font-size="14.00" fill="#000000">output.techflow_nsg_egress_all_rule</text>
</g>
<!-- [root] output.techflow_nsg_egress_all_rule&#45;&gt;[root] oci_core_network_security_group_security_rule.techflow_all_egress_nsg_sec_rule -->
<g id="edge35" class="edge">
<title>[root] output.techflow_nsg_egress_all_rule&#45;&gt;[root] oci_core_network_security_group_security_rule.techflow_all_egress_nsg_sec_rule</title>
<path fill="none" stroke="#000000" d="M1037.911,-575.8314C1033.6683,-567.7925 1028.5879,-558.1666 1023.904,-549.2918"/>
<polygon fill="#000000" stroke="#000000" points="1026.9811,-547.6235 1019.2181,-540.4133 1020.7904,-550.8908 1026.9811,-547.6235"/>
</g>
<!-- [root] output.techflow_nsg_ingress_22_rule -->
<g id="node18" class="node">
<title>[root] output.techflow_nsg_ingress_22_rule</title>
<polygon fill="none" stroke="#000000" points="932.5,-612 764.5,-612 764.5,-576 938.5,-576 938.5,-606 932.5,-612"/>
<polyline fill="none" stroke="#000000" points="932.5,-612 932.5,-606 "/>
<polyline fill="none" stroke="#000000" points="938.5,-606 932.5,-606 "/>
<text text-anchor="middle" x="851.5" y="-590.3" font-family="Times,serif" font-size="14.00" fill="#000000">output.techflow_nsg_ingress_22_rule</text>
</g>
<!-- [root] output.techflow_nsg_ingress_22_rule&#45;&gt;[root] oci_core_network_security_group_security_rule.techflow_22_ingress_nsg_sec_rule -->
<g id="edge36" class="edge">
<title>[root] output.techflow_nsg_ingress_22_rule&#45;&gt;[root] oci_core_network_security_group_security_rule.techflow_22_ingress_nsg_sec_rule</title>
<path fill="none" stroke="#000000" d="M794.0092,-575.9243C762.2952,-565.9531 722.7473,-553.5188 689.6225,-543.104"/>
<polygon fill="#000000" stroke="#000000" points="690.6038,-539.7437 680.0144,-540.0831 688.5042,-546.4214 690.6038,-539.7437"/>
</g>
<!-- [root] output.techflow_route_table -->
<g id="node19" class="node">
<title>[root] output.techflow_route_table</title>
<polygon fill="none" stroke="#000000" points="1507,-396 1378,-396 1378,-360 1513,-360 1513,-390 1507,-396"/>
<polyline fill="none" stroke="#000000" points="1507,-396 1507,-390 "/>
<polyline fill="none" stroke="#000000" points="1513,-390 1507,-390 "/>
<text text-anchor="middle" x="1445.5" y="-374.3" font-family="Times,serif" font-size="14.00" fill="#000000">output.techflow_route_table</text>
</g>
<!-- [root] output.techflow_route_table&#45;&gt;[root] oci_core_route_table.techflow_route_table -->
<g id="edge37" class="edge">
<title>[root] output.techflow_route_table&#45;&gt;[root] oci_core_route_table.techflow_route_table</title>
<path fill="none" stroke="#000000" d="M1436.9204,-359.8314C1433.1642,-351.8771 1428.6743,-342.369 1424.5202,-333.5723"/>
<polygon fill="#000000" stroke="#000000" points="1427.6301,-331.9612 1420.1952,-324.4133 1421.3004,-334.9503 1427.6301,-331.9612"/>
</g>
<!-- [root] output.techflow_subnet -->
<g id="node20" class="node">
<title>[root] output.techflow_subnet</title>
<polygon fill="none" stroke="#000000" points="1503,-540 1394,-540 1394,-504 1509,-504 1509,-534 1503,-540"/>
<polyline fill="none" stroke="#000000" points="1503,-540 1503,-534 "/>
<polyline fill="none" stroke="#000000" points="1509,-534 1503,-534 "/>
<text text-anchor="middle" x="1451.5" y="-518.3" font-family="Times,serif" font-size="14.00" fill="#000000">output.techflow_subnet</text>
</g>
<!-- [root] output.techflow_subnet&#45;&gt;[root] oci_core_subnet.techflow_subnet -->
<g id="edge38" class="edge">
<title>[root] output.techflow_subnet&#45;&gt;[root] oci_core_subnet.techflow_subnet</title>
<path fill="none" stroke="#000000" d="M1419.7136,-503.9081C1373.9856,-477.8812 1289.6221,-429.8639 1239.3321,-401.2404"/>
<polygon fill="#000000" stroke="#000000" points="1240.7776,-398.036 1230.3554,-396.1311 1237.315,-404.1196 1240.7776,-398.036"/>
</g>
<!-- [root] output.techflow_vcn -->
<g id="node21" class="node">
<title>[root] output.techflow_vcn</title>
<polygon fill="none" stroke="#000000" points="1657,-252 1560,-252 1560,-216 1663,-216 1663,-246 1657,-252"/>
<polyline fill="none" stroke="#000000" points="1657,-252 1657,-246 "/>
<polyline fill="none" stroke="#000000" points="1663,-246 1657,-246 "/>
<text text-anchor="middle" x="1611.5" y="-230.3" font-family="Times,serif" font-size="14.00" fill="#000000">output.techflow_vcn</text>
</g>
<!-- [root] output.techflow_vcn&#45;&gt;[root] oci_core_vcn.techflow_vcn -->
<g id="edge39" class="edge">
<title>[root] output.techflow_vcn&#45;&gt;[root] oci_core_vcn.techflow_vcn</title>
<path fill="none" stroke="#000000" d="M1559.9501,-222.9864C1504.119,-211.0581 1414.4859,-191.908 1350.5599,-178.2502"/>
<polygon fill="#000000" stroke="#000000" points="1351.0406,-174.774 1340.53,-176.1073 1349.578,-181.6195 1351.0406,-174.774"/>
</g>
<!-- [root] output.techflow_volumes -->
<g id="node22" class="node">
<title>[root] output.techflow_volumes</title>
<polygon fill="none" stroke="#000000" points="137,-612 20,-612 20,-576 143,-576 143,-606 137,-612"/>
<polyline fill="none" stroke="#000000" points="137,-612 137,-606 "/>
<polyline fill="none" stroke="#000000" points="143,-606 137,-606 "/>
<text text-anchor="middle" x="81.5" y="-590.3" font-family="Times,serif" font-size="14.00" fill="#000000">output.techflow_volumes</text>
</g>
<!-- [root] output.techflow_volumes&#45;&gt;[root] oci_core_volume.techflow_volumes -->
<g id="edge40" class="edge">
<title>[root] output.techflow_volumes&#45;&gt;[root] oci_core_volume.techflow_volumes</title>
<path fill="none" stroke="#000000" d="M81.88,-575.7623C82.3916,-551.201 83.3073,-507.2474 83.9093,-478.3541"/>
<polygon fill="#000000" stroke="#000000" points="87.414,-478.1604 84.1231,-468.0896 80.4155,-478.0145 87.414,-478.1604"/>
</g>
<!-- [root] output.techflow_volumes_attachments -->
<g id="node23" class="node">
<title>[root] output.techflow_volumes_attachments</title>
<polygon fill="none" stroke="#000000" points="375.5,-612 203.5,-612 203.5,-576 381.5,-576 381.5,-606 375.5,-612"/>
<polyline fill="none" stroke="#000000" points="375.5,-612 375.5,-606 "/>
<polyline fill="none" stroke="#000000" points="381.5,-606 375.5,-606 "/>
<text text-anchor="middle" x="292.5" y="-590.3" font-family="Times,serif" font-size="14.00" fill="#000000">output.techflow_volumes_attachments</text>
</g>
<!-- [root] output.techflow_volumes_attachments&#45;&gt;[root] oci_core_volume_attachment.techflow_volumes_attachments -->
<g id="edge41" class="edge">
<title>[root] output.techflow_volumes_attachments&#45;&gt;[root] oci_core_volume_attachment.techflow_volumes_attachments</title>
<path fill="none" stroke="#000000" d="M280.1352,-575.8314C274.5491,-567.6232 267.837,-557.7606 261.6928,-548.7323"/>
<polygon fill="#000000" stroke="#000000" points="264.551,-546.7112 256.0313,-540.4133 258.764,-550.6496 264.551,-546.7112"/>
</g>
<!-- [root] var.fingerprint -->
<g id="node26" class="node">
<title>[root] var.fingerprint</title>
<polygon fill="none" stroke="#000000" points="1048,-36 977,-36 977,0 1054,0 1054,-30 1048,-36"/>
<polyline fill="none" stroke="#000000" points="1048,-36 1048,-30 "/>
<polyline fill="none" stroke="#000000" points="1054,-30 1048,-30 "/>
<text text-anchor="middle" x="1015.5" y="-14.3" font-family="Times,serif" font-size="14.00" fill="#000000">var.fingerprint</text>
</g>
<!-- [root] provider.oci&#45;&gt;[root] var.fingerprint -->
<g id="edge45" class="edge">
<title>[root] provider.oci&#45;&gt;[root] var.fingerprint</title>
<path fill="none" stroke="#000000" d="M1194.8045,-80.5349C1164.1227,-70.6606 1114.6468,-54.4751 1063.7036,-36.3696"/>
<polygon fill="#000000" stroke="#000000" points="1064.7731,-33.0351 1054.1785,-32.9677 1062.4187,-39.6273 1064.7731,-33.0351"/>
</g>
<!-- [root] var.private_key_path -->
<g id="node27" class="node">
<title>[root] var.private_key_path</title>
<polygon fill="none" stroke="#000000" points="1171,-36 1072,-36 1072,0 1177,0 1177,-30 1171,-36"/>
<polyline fill="none" stroke="#000000" points="1171,-36 1171,-30 "/>
<polyline fill="none" stroke="#000000" points="1177,-30 1171,-30 "/>
<text text-anchor="middle" x="1124.5" y="-14.3" font-family="Times,serif" font-size="14.00" fill="#000000">var.private_key_path</text>
</g>
<!-- [root] provider.oci&#45;&gt;[root] var.private_key_path -->
<g id="edge46" class="edge">
<title>[root] provider.oci&#45;&gt;[root] var.private_key_path</title>
<path fill="none" stroke="#000000" d="M1206.622,-77.1278C1193.1312,-67.4145 1174.2299,-53.8055 1157.9612,-42.092"/>
<polygon fill="#000000" stroke="#000000" points="1159.8967,-39.1728 1149.7362,-36.1701 1155.8065,-44.8536 1159.8967,-39.1728"/>
</g>
<!-- [root] var.region -->
<g id="node28" class="node">
<title>[root] var.region</title>
<polygon fill="none" stroke="#000000" points="1248,-36 1195,-36 1195,0 1254,0 1254,-30 1248,-36"/>
<polyline fill="none" stroke="#000000" points="1248,-36 1248,-30 "/>
<polyline fill="none" stroke="#000000" points="1254,-30 1248,-30 "/>
<text text-anchor="middle" x="1224.5" y="-14.3" font-family="Times,serif" font-size="14.00" fill="#000000">var.region</text>
</g>
<!-- [root] provider.oci&#45;&gt;[root] var.region -->
<g id="edge47" class="edge">
<title>[root] provider.oci&#45;&gt;[root] var.region</title>
<path fill="none" stroke="#000000" d="M1224.5,-71.8314C1224.5,-64.131 1224.5,-54.9743 1224.5,-46.4166"/>
<polygon fill="#000000" stroke="#000000" points="1228.0001,-46.4132 1224.5,-36.4133 1221.0001,-46.4133 1228.0001,-46.4132"/>
</g>
<!-- [root] var.tenancy_id -->
<g id="node29" class="node">
<title>[root] var.tenancy_id</title>
<polygon fill="none" stroke="#000000" points="1345,-36 1272,-36 1272,0 1351,0 1351,-30 1345,-36"/>
<polyline fill="none" stroke="#000000" points="1345,-36 1345,-30 "/>
<polyline fill="none" stroke="#000000" points="1351,-30 1345,-30 "/>
<text text-anchor="middle" x="1311.5" y="-14.3" font-family="Times,serif" font-size="14.00" fill="#000000">var.tenancy_id</text>
</g>
<!-- [root] provider.oci&#45;&gt;[root] var.tenancy_id -->
<g id="edge48" class="edge">
<title>[root] provider.oci&#45;&gt;[root] var.tenancy_id</title>
<path fill="none" stroke="#000000" d="M1240.864,-76.4574C1252.3851,-66.9227 1268.1345,-53.8887 1281.8385,-42.5474"/>
<polygon fill="#000000" stroke="#000000" points="1284.151,-45.1768 1289.6234,-36.1047 1279.688,-39.7841 1284.151,-45.1768"/>
</g>
<!-- [root] var.user_id -->
<g id="node30" class="node">
<title>[root] var.user_id</title>
<polygon fill="none" stroke="#000000" points="1426,-36 1369,-36 1369,0 1432,0 1432,-30 1426,-36"/>
<polyline fill="none" stroke="#000000" points="1426,-36 1426,-30 "/>
<polyline fill="none" stroke="#000000" points="1432,-30 1426,-30 "/>
<text text-anchor="middle" x="1400.5" y="-14.3" font-family="Times,serif" font-size="14.00" fill="#000000">var.user_id</text>
</g>
<!-- [root] provider.oci&#45;&gt;[root] var.user_id -->
<g id="edge49" class="edge">
<title>[root] provider.oci&#45;&gt;[root] var.user_id</title>
<path fill="none" stroke="#000000" d="M1251.246,-79.6039C1278.5597,-68.9163 1322.1376,-51.6689 1359.5,-36 1359.5941,-35.9605 1359.6883,-35.921 1359.7826,-35.8814"/>
<polygon fill="#000000" stroke="#000000" points="1360.9314,-39.1964 1368.7607,-32.0583 1358.1888,-32.756 1360.9314,-39.1964"/>
</g>
<!-- [root] meta.count&#45;boundary (EachMode fixup) -->
<g id="node31" class="node">
<title>[root] meta.count&#45;boundary (EachMode fixup)</title>
<ellipse fill="none" stroke="#000000" cx="1142.5" cy="-666" rx="137.5759" ry="18"/>
<text text-anchor="middle" x="1142.5" y="-662.3" font-family="Times,serif" font-size="14.00" fill="#000000">[root] meta.count&#45;boundary (EachMode fixup)</text>
</g>
<!-- [root] meta.count&#45;boundary (EachMode fixup)&#45;&gt;[root] output.techflow_dhcp_options -->
<g id="edge3" class="edge">
<title>[root] meta.count&#45;boundary (EachMode fixup)&#45;&gt;[root] output.techflow_dhcp_options</title>
<path fill="none" stroke="#000000" d="M1007.9653,-662.0994C855.4125,-656.2743 616.9232,-642.5225 532.5,-612 469.8329,-589.3432 402.9991,-565.5646 428.5,-504 446.4633,-460.6327 487.3973,-424.4093 517.7613,-402.0965"/>
<polygon fill="#000000" stroke="#000000" points="519.9293,-404.8487 526.0173,-396.1776 515.8508,-399.1596 519.9293,-404.8487"/>
</g>
<!-- [root] meta.count&#45;boundary (EachMode fixup)&#45;&gt;[root] output.techflow_ig -->
<g id="edge4" class="edge">
<title>[root] meta.count&#45;boundary (EachMode fixup)&#45;&gt;[root] output.techflow_ig</title>
<path fill="none" stroke="#000000" d="M1247.6061,-654.3528C1326.5887,-644.5002 1427.4413,-629.2564 1465.5,-612 1523.03,-585.9151 1575.5,-585.1674 1575.5,-522 1575.5,-522 1575.5,-522 1575.5,-450 1575.5,-409.876 1575.5,-363.4631 1575.5,-334.4177"/>
<polygon fill="#000000" stroke="#000000" points="1579.0001,-334.1853 1575.5,-324.1854 1572.0001,-334.1854 1579.0001,-334.1853"/>
</g>
<!-- [root] meta.count&#45;boundary (EachMode fixup)&#45;&gt;[root] output.techflow_instances -->
<g id="edge5" class="edge">
<title>[root] meta.count&#45;boundary (EachMode fixup)&#45;&gt;[root] output.techflow_instances</title>
<path fill="none" stroke="#000000" d="M1158.951,-648.0535C1182.0719,-622.8306 1224.3112,-576.7514 1250.8131,-547.8403"/>
<polygon fill="#000000" stroke="#000000" points="1253.6645,-549.9093 1257.8417,-540.1727 1248.5044,-545.1792 1253.6645,-549.9093"/>
</g>
<!-- [root] meta.count&#45;boundary (EachMode fixup)&#45;&gt;[root] output.techflow_nsg -->
<g id="edge6" class="edge">
<title>[root] meta.count&#45;boundary (EachMode fixup)&#45;&gt;[root] output.techflow_nsg</title>
<path fill="none" stroke="#000000" d="M1195.3382,-649.3517C1272.7291,-622.3727 1402.0044,-565.8483 1346.5,-504 1298.8706,-450.9268 1103.3733,-480.2074 1015.8508,-467.7743"/>
<polygon fill="#000000" stroke="#000000" points="1016.1768,-464.2793 1005.7298,-466.043 1014.9965,-471.1791 1016.1768,-464.2793"/>
</g>
<!-- [root] meta.count&#45;boundary (EachMode fixup)&#45;&gt;[root] output.techflow_nsg_egress_all_rule -->
<g id="edge7" class="edge">
<title>[root] meta.count&#45;boundary (EachMode fixup)&#45;&gt;[root] output.techflow_nsg_egress_all_rule</title>
<path fill="none" stroke="#000000" d="M1119.0168,-648.2022C1107.1177,-639.1839 1092.4897,-628.0975 1079.5702,-618.3059"/>
<polygon fill="#000000" stroke="#000000" points="1081.4567,-615.3439 1071.3729,-612.0931 1077.2285,-620.9228 1081.4567,-615.3439"/>
</g>
<!-- [root] meta.count&#45;boundary (EachMode fixup)&#45;&gt;[root] output.techflow_nsg_ingress_22_rule -->
<g id="edge8" class="edge">
<title>[root] meta.count&#45;boundary (EachMode fixup)&#45;&gt;[root] output.techflow_nsg_ingress_22_rule</title>
<path fill="none" stroke="#000000" d="M1077.9177,-650.0209C1035.5645,-639.5417 979.7988,-625.744 934.2096,-614.4642"/>
<polygon fill="#000000" stroke="#000000" points="934.8958,-611.0285 924.3479,-612.0242 933.2145,-617.8236 934.8958,-611.0285"/>
</g>
<!-- [root] meta.count&#45;boundary (EachMode fixup)&#45;&gt;[root] output.techflow_route_table -->
<g id="edge9" class="edge">
<title>[root] meta.count&#45;boundary (EachMode fixup)&#45;&gt;[root] output.techflow_route_table</title>
<path fill="none" stroke="#000000" d="M1249.9353,-654.6554C1300.6628,-646.7759 1361.1887,-633.6478 1412.5,-612 1464.6344,-590.0049 1491.1269,-590.0623 1517.5,-540 1542.2015,-493.1108 1501.0968,-436.0049 1471.5375,-403.6413"/>
<polygon fill="#000000" stroke="#000000" points="1474.0885,-401.2449 1464.6907,-396.3527 1468.9865,-406.0376 1474.0885,-401.2449"/>
</g>
<!-- [root] meta.count&#45;boundary (EachMode fixup)&#45;&gt;[root] output.techflow_subnet -->
<g id="edge10" class="edge">
<title>[root] meta.count&#45;boundary (EachMode fixup)&#45;&gt;[root] output.techflow_subnet</title>
<path fill="none" stroke="#000000" d="M1230.8037,-652.1261C1287.4023,-642.0564 1354.7406,-627.5242 1379.5,-612 1404.1983,-596.514 1424.1037,-569.506 1436.6725,-549.1056"/>
<polygon fill="#000000" stroke="#000000" points="1439.827,-550.6481 1441.922,-540.2625 1433.8077,-547.0749 1439.827,-550.6481"/>
</g>
<!-- [root] meta.count&#45;boundary (EachMode fixup)&#45;&gt;[root] output.techflow_vcn -->
<g id="edge11" class="edge">
<title>[root] meta.count&#45;boundary (EachMode fixup)&#45;&gt;[root] output.techflow_vcn</title>
<path fill="none" stroke="#000000" d="M1255.5812,-655.6783C1349.2661,-646.0646 1474.3938,-630.4626 1521.5,-612 1586.927,-586.3567 1651.5,-592.2728 1651.5,-522 1651.5,-522 1651.5,-522 1651.5,-378 1651.5,-336.2219 1635.676,-290.0316 1623.9336,-261.5067"/>
<polygon fill="#000000" stroke="#000000" points="1627.1092,-260.0301 1619.983,-252.19 1620.6646,-262.7629 1627.1092,-260.0301"/>
</g>
<!-- [root] meta.count&#45;boundary (EachMode fixup)&#45;&gt;[root] output.techflow_volumes -->
<g id="edge12" class="edge">
<title>[root] meta.count&#45;boundary (EachMode fixup)&#45;&gt;[root] output.techflow_volumes</title>
<path fill="none" stroke="#000000" d="M1007.1377,-662.5899C822.8678,-656.9673 482.9635,-643.1102 194.5,-612 181.2006,-610.5657 167.0795,-608.6406 153.4892,-606.5821"/>
<polygon fill="#000000" stroke="#000000" points="153.6411,-603.0638 143.2225,-604.9879 152.567,-609.9809 153.6411,-603.0638"/>
</g>
<!-- [root] meta.count&#45;boundary (EachMode fixup)&#45;&gt;[root] output.techflow_volumes_attachments -->
<g id="edge13" class="edge">
<title>[root] meta.count&#45;boundary (EachMode fixup)&#45;&gt;[root] output.techflow_volumes_attachments</title>
<path fill="none" stroke="#000000" d="M1011.219,-660.5213C861.727,-653.3527 610.3685,-638.4728 395.5,-612 394.2332,-611.8439 392.9583,-611.6828 391.6767,-611.5171"/>
<polygon fill="#000000" stroke="#000000" points="392.1239,-608.0458 381.7428,-610.163 391.1784,-614.9817 392.1239,-608.0458"/>
</g>
<!-- [root] provider.oci (close) -->
<g id="node33" class="node">
<title>[root] provider.oci (close)</title>
<ellipse fill="none" stroke="#000000" cx="622.5" cy="-594" rx="81.4863" ry="18"/>
<text text-anchor="middle" x="622.5" y="-590.3" font-family="Times,serif" font-size="14.00" fill="#000000">[root] provider.oci (close)</text>
</g>
<!-- [root] provider.oci (close)&#45;&gt;[root] oci_core_network_security_group_security_rule.techflow_22_ingress_nsg_sec_rule -->
<g id="edge42" class="edge">
<title>[root] provider.oci (close)&#45;&gt;[root] oci_core_network_security_group_security_rule.techflow_22_ingress_nsg_sec_rule</title>
<path fill="none" stroke="#000000" d="M622.5,-575.8314C622.5,-568.131 622.5,-558.9743 622.5,-550.4166"/>
<polygon fill="#000000" stroke="#000000" points="626.0001,-550.4132 622.5,-540.4133 619.0001,-550.4133 626.0001,-550.4132"/>
</g>
<!-- [root] provider.oci (close)&#45;&gt;[root] oci_core_network_security_group_security_rule.techflow_all_egress_nsg_sec_rule -->
<g id="edge43" class="edge">
<title>[root] provider.oci (close)&#45;&gt;[root] oci_core_network_security_group_security_rule.techflow_all_egress_nsg_sec_rule</title>
<path fill="none" stroke="#000000" d="M685.1084,-582.3519C743.7287,-571.4458 832.5207,-554.9264 902.3973,-541.9261"/>
<polygon fill="#000000" stroke="#000000" points="903.3727,-545.3048 912.5638,-540.0346 902.0923,-538.4228 903.3727,-545.3048"/>
</g>
<!-- [root] provider.oci (close)&#45;&gt;[root] oci_core_volume_attachment.techflow_volumes_attachments -->
<g id="edge44" class="edge">
<title>[root] provider.oci (close)&#45;&gt;[root] oci_core_volume_attachment.techflow_volumes_attachments</title>
<path fill="none" stroke="#000000" d="M560.7636,-582.2717C503.386,-571.3715 416.7573,-554.9143 348.5116,-541.9494"/>
<polygon fill="#000000" stroke="#000000" points="349.0592,-538.4909 338.5817,-540.063 347.7527,-545.3679 349.0592,-538.4909"/>
</g>
<!-- [root] provisioner.remote&#45;exec (close) -->
<g id="node34" class="node">
<title>[root] provisioner.remote&#45;exec (close)</title>
<ellipse fill="none" stroke="#000000" cx="327.5" cy="-666" rx="115.0796" ry="18"/>
<text text-anchor="middle" x="327.5" y="-662.3" font-family="Times,serif" font-size="14.00" fill="#000000">[root] provisioner.remote&#45;exec (close)</text>
</g>
<!-- [root] provisioner.remote&#45;exec (close)&#45;&gt;[root] oci_core_volume_attachment.techflow_volumes_attachments -->
<g id="edge50" class="edge">
<title>[root] provisioner.remote&#45;exec (close)&#45;&gt;[root] oci_core_volume_attachment.techflow_volumes_attachments</title>
<path fill="none" stroke="#000000" d="M252.2397,-652.3422C229.9047,-644.4005 207.8612,-631.8454 194.5,-612 180.5029,-591.2102 196.7491,-566.0473 214.1919,-547.62"/>
<polygon fill="#000000" stroke="#000000" points="217.0525,-549.7098 221.656,-540.1673 212.1065,-544.7562 217.0525,-549.7098"/>
</g>
<!-- [root] root -->
<g id="node35" class="node">
<title>[root] root</title>
<ellipse fill="none" stroke="#000000" cx="622.5" cy="-738" rx="38.9931" ry="18"/>
<text text-anchor="middle" x="622.5" y="-734.3" font-family="Times,serif" font-size="14.00" fill="#000000">[root] root</text>
</g>
<!-- [root] root&#45;&gt;[root] meta.count&#45;boundary (EachMode fixup) -->
<g id="edge51" class="edge">
<title>[root] root&#45;&gt;[root] meta.count&#45;boundary (EachMode fixup)</title>
<path fill="none" stroke="#000000" d="M659.8971,-732.8219C738.0198,-722.005 920.955,-696.6755 1037.8132,-680.4951"/>
<polygon fill="#000000" stroke="#000000" points="1038.4329,-683.9428 1047.8584,-679.1042 1037.4728,-677.0089 1038.4329,-683.9428"/>
</g>
<!-- [root] root&#45;&gt;[root] provider.oci (close) -->
<g id="edge52" class="edge">
<title>[root] root&#45;&gt;[root] provider.oci (close)</title>
<path fill="none" stroke="#000000" d="M622.5,-719.7623C622.5,-695.201 622.5,-651.2474 622.5,-622.3541"/>
<polygon fill="#000000" stroke="#000000" points="626.0001,-622.0896 622.5,-612.0896 619.0001,-622.0897 626.0001,-622.0896"/>
</g>
<!-- [root] root&#45;&gt;[root] provisioner.remote&#45;exec (close) -->
<g id="edge53" class="edge">
<title>[root] root&#45;&gt;[root] provisioner.remote&#45;exec (close)</title>
<path fill="none" stroke="#000000" d="M587.7923,-729.529C541.7687,-718.2961 459.4041,-698.1935 399.626,-683.6036"/>
<polygon fill="#000000" stroke="#000000" points="400.4073,-680.1917 389.8626,-681.2207 398.7475,-686.992 400.4073,-680.1917"/>
</g>
</g>
</svg>
